<svg xmlns="http://www.w3.org/2000/svg" width="197.76" height="252.374" viewBox="0 0 197.76 252.374"><script xmlns=""/>
    <defs>
        <style>
            .a {
                fill: #ff5c5c;
                stroke: #fff;
                stroke-width: 4px;
            }
        </style>
    </defs>
    <path class="a" d="M84.123,161.454,88.1,146.111a.723.723,0,0,0-.672-.878H13.2a.672.672,0,0,1-.672-.852l38.1-141.9a.7.7,0,0,1,.672-.517H92.621c27.74.1,45.149,7.568,55.971,18.416s15.5,24.563,15.5,41.972a78.365,78.365,0,0,1-13.922,44.968.672.672,0,0,0,.542,1.059h54.809a.7.7,0,0,1,.491,1.188L62.633,250.021a.672.672,0,0,1-1.136-.672Z" transform="translate(-10.488 0.04)"/>
</svg>