<svg width="160" height="160" viewBox="0 0 160 160" fill="none" xmlns="http://www.w3.org/2000/svg">
<circle cx="80" cy="80" r="80" fill="#35AB79"/>
<path d="M77.3594 131V31H83.7656V131H77.3594ZM94.3516 64.0078C94.0391 60.8568 92.6979 58.4089 90.3281 56.6641C87.9583 54.9193 84.7422 54.0469 80.6797 54.0469C77.9193 54.0469 75.5885 54.4375 73.6875 55.2187C71.7865 55.974 70.3281 57.0286 69.3125 58.3828C68.3229 59.737 67.8281 61.2734 67.8281 62.9922C67.776 64.4245 68.0755 65.6745 68.7266 66.7422C69.4036 67.8099 70.3281 68.7344 71.5 69.5156C72.6719 70.2708 74.026 70.9349 75.5625 71.5078C77.099 72.0547 78.7396 72.5234 80.4844 72.9141L87.6719 74.6328C91.1615 75.4141 94.3646 76.4557 97.2812 77.7578C100.198 79.0599 102.724 80.6615 104.859 82.5625C106.995 84.4635 108.648 86.7031 109.82 89.2812C111.018 91.8594 111.63 94.8151 111.656 98.1484C111.63 103.044 110.38 107.289 107.906 110.883C105.458 114.451 101.917 117.224 97.2812 119.203C92.6719 121.156 87.112 122.133 80.6016 122.133C74.1432 122.133 68.5182 121.143 63.7266 119.164C58.9609 117.185 55.237 114.255 52.5547 110.375C49.8984 106.469 48.5052 101.638 48.375 95.8828H64.7422C64.9245 98.5651 65.6927 100.805 67.0469 102.602C68.4271 104.372 70.263 105.714 72.5547 106.625C74.8724 107.51 77.4896 107.953 80.4062 107.953C83.2708 107.953 85.7578 107.536 87.8672 106.703C90.0026 105.87 91.6563 104.711 92.8281 103.227C94 101.742 94.5859 100.036 94.5859 98.1094C94.5859 96.3125 94.0521 94.8021 92.9844 93.5781C91.9427 92.3542 90.4063 91.3125 88.375 90.4531C86.3698 89.5937 83.9089 88.8125 80.9922 88.1094L72.2813 85.9219C65.5365 84.2812 60.2109 81.7161 56.3047 78.2266C52.3984 74.737 50.4583 70.0365 50.4844 64.125C50.4583 59.2812 51.7474 55.0495 54.3516 51.4297C56.9818 47.8099 60.5885 44.9844 65.1719 42.9531C69.7552 40.9219 74.9635 39.9062 80.7969 39.9062C86.7344 39.9062 91.9167 40.9219 96.3438 42.9531C100.797 44.9844 104.26 47.8099 106.734 51.4297C109.208 55.0495 110.484 59.2422 110.562 64.0078H94.3516Z" fill="white"/>
</svg>
