<svg width="170" height="171" viewBox="0 0 170 171" fill="none" xmlns="http://www.w3.org/2000/svg">
<path fill-rule="evenodd" clip-rule="evenodd" d="M4.32019 171H165.58C166.148 171.001 166.71 170.89 167.235 170.674C167.76 170.457 168.236 170.139 168.638 169.738C169.039 169.336 169.357 168.859 169.574 168.335C169.791 167.81 169.901 167.248 169.9 166.68V4.32001C169.901 3.75233 169.791 3.18998 169.574 2.66526C169.357 2.14054 169.039 1.66378 168.638 1.26237C168.236 0.860958 167.76 0.542799 167.235 0.326166C166.71 0.109533 166.148 -0.00130703 165.58 1.1629e-05H4.32019C3.75251 -0.00130703 3.19016 0.109533 2.66543 0.326166C2.14071 0.542799 1.66396 0.860958 1.26254 1.26237C0.861132 1.66378 0.542974 2.14054 0.32634 2.66526C0.109707 3.18998 -0.00113291 3.75233 0.000185746 4.32001V166.65C-0.00510792 167.22 0.102797 167.786 0.31765 168.314C0.532504 168.842 0.850033 169.322 1.25184 169.727C1.65365 170.132 2.13175 170.453 2.65845 170.671C3.18515 170.89 3.74997 171.001 4.32019 171ZM115.46 121.24C114.75 120.57 114.03 119.9 113.31 119.24C105.433 112.082 97.0185 105.54 88.1402 99.67C79.9246 104.67 71.4346 109.203 62.7102 113.25L9.71019 102.63C20.0765 99.962 30.2581 96.6216 40.1902 92.63C46.8569 89.9633 53.3335 86.9967 59.6202 83.73C55.6202 81.8567 51.5869 80.0934 47.5202 78.44C37.5904 74.4515 27.4124 71.1111 17.0502 68.44L70.0002 57.73C76.0002 60.51 81.8302 63.4867 87.4902 66.66C93.9461 62.0558 100.127 57.0773 106 51.75C106.73 51.1 107.44 50.44 108.16 49.75L152.87 41.26C141.338 56.8058 127.781 70.7423 112.56 82.7C130.737 95.8441 146.793 111.695 160.17 129.7L115.46 121.21V121.24Z" fill="#FF0000"/>
</svg>
